<svg width="270" height="300" viewBox="0 0 270 300" fill="none" xmlns="http://www.w3.org/2000/svg">
<g clip-path="url(#clip0_13056_5118)">
<path d="M154.608 245.047H90.0195V254.435H154.608V245.047Z" fill="#94332A"/>
<path d="M109.131 254.434L96.541 316.976" stroke="white" stroke-width="0.804298" stroke-miterlimit="10" stroke-linecap="round" stroke-linejoin="round"/>
<path d="M97.0811 254.434L109.671 316.976" stroke="white" stroke-width="0.804298" stroke-miterlimit="10" stroke-linecap="round" stroke-linejoin="round"/>
<path d="M147.359 254.434L134.769 316.976" stroke="white" stroke-width="0.804298" stroke-miterlimit="10" stroke-linecap="round" stroke-linejoin="round"/>
<path d="M135.307 254.434L147.897 316.976" stroke="white" stroke-width="0.804298" stroke-miterlimit="10" stroke-linecap="round" stroke-linejoin="round"/>
<path d="M176.135 289.738L177.002 302.643L193.386 304.333C193.386 304.333 195.479 292.357 196.566 288.313C196.566 288.313 184.332 286.567 176.135 289.738Z" fill="#0D968B"/>
<path d="M194.299 299.28C200.273 300.488 211.883 301.513 215.212 303.782C218.05 305.717 220.956 310.756 221.052 313.598C221.174 317.148 215.14 316.975 215.14 316.975L188.13 316.956C174.825 317.412 175.166 314.138 175.166 314.138L175.314 302.954C175.33 301.798 176.354 300.917 177.496 301.084C182.359 301.797 193.819 303.064 194.299 299.28Z" fill="#E9590C"/>
<path d="M142.302 289.738L143.169 302.643L159.553 304.333C159.553 304.333 161.646 292.357 162.733 288.313C162.733 288.313 150.499 286.567 142.302 289.738Z" fill="#0D968B"/>
<path d="M160.466 299.28C166.44 300.488 178.05 301.513 181.379 303.782C184.217 305.717 187.123 310.756 187.219 313.598C187.34 317.148 181.307 316.975 181.307 316.975L154.297 316.956C140.992 317.412 141.333 314.138 141.333 314.138L141.481 302.954C141.497 301.798 142.521 300.917 143.663 301.084C148.526 301.797 159.986 303.064 160.466 299.28Z" fill="#E9590C"/>
<path d="M160.466 299.28C166.44 300.488 178.05 301.513 181.379 303.782C184.217 305.717 187.122 310.756 187.219 313.598C187.34 317.148 181.306 316.975 181.306 316.975" stroke="black" stroke-width="0.804298" stroke-miterlimit="10" stroke-linecap="round" stroke-linejoin="round"/>
<path d="M134.637 208.044C134.637 208.044 115.001 219.248 125.3 235.997C135.598 252.747 177.997 247.762 177.997 247.762C177.997 247.762 174.901 269.425 176.132 289.738C176.132 289.738 188.037 289.738 196.564 288.313C196.564 288.313 210.83 240.635 210.83 230.299C210.83 219.964 197.083 212.402 184.456 209.264C171.829 206.128 134.637 208.044 134.637 208.044Z" fill="black"/>
<path d="M100.707 208.044C100.707 208.044 84.495 224.242 94.794 240.991C105.092 257.741 144.067 247.762 144.067 247.762C144.067 247.762 140.972 269.425 142.202 289.738C142.202 289.738 154.107 289.738 162.634 288.313C162.634 288.313 176.9 240.635 176.9 230.299C176.9 219.964 163.153 212.402 150.526 209.264C137.899 206.128 100.707 208.044 100.707 208.044Z" fill="black"/>
<path d="M171.716 257.366C174.139 244.761 176.9 233.906 176.9 230.3C176.9 219.965 163.153 212.402 150.526 209.265" stroke="#FFFBF8" stroke-width="0.804298" stroke-miterlimit="10" stroke-linecap="round" stroke-linejoin="round"/>
<path d="M131.304 132.145C131.304 132.145 114.898 132.145 103.513 138.186C92.129 144.228 61.6597 203.642 100.835 206.663H166.127C166.127 206.663 179.854 200.957 177.176 160.341C177.176 160.341 176.172 131.809 131.304 132.145Z" fill="#0D968B"/>
<mask id="mask0_13056_5118" style="mask-type:luminance" maskUnits="userSpaceOnUse" x="81" y="132" width="97" height="75">
<path d="M131.304 132.145C131.304 132.145 114.898 132.145 103.513 138.186C92.129 144.228 61.6597 203.642 100.835 206.663H166.127C166.127 206.663 179.854 200.957 177.176 160.341C177.177 160.34 176.172 131.809 131.304 132.145Z" fill="white"/>
</mask>
<g mask="url(#mask0_13056_5118)">
<path d="M165.335 137.557C165.673 137.557 165.946 137.282 165.946 136.944C165.946 136.606 165.673 136.332 165.335 136.332C164.998 136.332 164.725 136.606 164.725 136.944C164.725 137.282 164.998 137.557 165.335 137.557Z" fill="#0D968B"/>
<path d="M151.911 136.944C151.911 137.283 151.638 137.557 151.3 137.557C150.963 137.557 150.689 137.283 150.689 136.944C150.689 136.606 150.963 136.332 151.3 136.332C151.638 136.332 151.911 136.606 151.911 136.944Z" fill="#0D968B"/>
<path d="M137.876 136.944C137.876 137.283 137.602 137.557 137.265 137.557C136.928 137.557 136.654 137.283 136.654 136.944C136.654 136.606 136.928 136.332 137.265 136.332C137.602 136.331 137.876 136.606 137.876 136.944Z" fill="#0D968B"/>
<path d="M123.84 136.944C123.84 137.283 123.567 137.557 123.229 137.557C122.892 137.557 122.618 137.283 122.618 136.944C122.618 136.606 122.892 136.332 123.229 136.332C123.566 136.331 123.84 136.606 123.84 136.944Z" fill="#0D968B"/>
<path d="M109.805 136.944C109.805 137.283 109.531 137.557 109.194 137.557C108.856 137.557 108.583 137.283 108.583 136.944C108.583 136.606 108.856 136.332 109.194 136.332C109.531 136.332 109.805 136.606 109.805 136.944Z" fill="#0D968B"/>
<path d="M95.1586 137.557C95.4959 137.557 95.7693 137.282 95.7693 136.944C95.7693 136.606 95.4959 136.332 95.1586 136.332C94.8213 136.332 94.5479 136.606 94.5479 136.944C94.5479 137.282 94.8213 137.557 95.1586 137.557Z" fill="#0D968B"/>
<path d="M81.1234 137.557C81.4607 137.557 81.7342 137.282 81.7342 136.944C81.7342 136.606 81.4607 136.332 81.1234 136.332C80.7861 136.332 80.5127 136.606 80.5127 136.944C80.5127 137.282 80.7861 137.557 81.1234 137.557Z" fill="#0D968B"/>
<path d="M172.963 146.724C172.963 147.062 172.689 147.336 172.352 147.336C172.015 147.336 171.741 147.062 171.741 146.724C171.741 146.385 172.015 146.111 172.352 146.111C172.689 146.111 172.963 146.385 172.963 146.724Z" fill="#0D968B"/>
<path d="M158.928 146.724C158.928 147.062 158.654 147.336 158.317 147.336C157.979 147.336 157.706 147.062 157.706 146.724C157.706 146.385 157.979 146.111 158.317 146.111C158.654 146.111 158.928 146.385 158.928 146.724Z" fill="#0D968B"/>
<path d="M144.893 146.724C144.893 147.062 144.62 147.336 144.283 147.336C143.945 147.336 143.672 147.062 143.672 146.724C143.672 146.385 143.945 146.111 144.283 146.111C144.619 146.111 144.893 146.385 144.893 146.724Z" fill="#0D968B"/>
<path d="M130.858 146.724C130.858 147.062 130.584 147.336 130.246 147.336C129.909 147.336 129.636 147.062 129.636 146.724C129.636 146.385 129.909 146.111 130.246 146.111C130.584 146.111 130.858 146.385 130.858 146.724Z" fill="#0D968B"/>
<path d="M116.822 146.724C116.822 147.062 116.549 147.336 116.211 147.336C115.874 147.336 115.601 147.062 115.601 146.724C115.601 146.385 115.874 146.111 116.211 146.111C116.549 146.111 116.822 146.385 116.822 146.724Z" fill="#0D968B"/>
<path d="M102.787 146.724C102.787 147.062 102.514 147.336 102.176 147.336C101.839 147.336 101.565 147.062 101.565 146.724C101.565 146.385 101.839 146.111 102.176 146.111C102.514 146.111 102.787 146.385 102.787 146.724Z" fill="#0D968B"/>
<path d="M88.7524 146.724C88.7524 147.062 88.479 147.336 88.141 147.336C87.8036 147.336 87.5303 147.062 87.5303 146.724C87.5303 146.385 87.8036 146.111 88.141 146.111C88.479 146.111 88.7524 146.385 88.7524 146.724Z" fill="#0D968B"/>
<path d="M165.946 156.503C165.946 156.842 165.673 157.116 165.335 157.116C164.998 157.116 164.725 156.842 164.725 156.503C164.725 156.165 164.998 155.891 165.335 155.891C165.673 155.89 165.946 156.165 165.946 156.503Z" fill="#0D968B"/>
<path d="M151.911 156.503C151.911 156.842 151.638 157.116 151.3 157.116C150.963 157.116 150.689 156.842 150.689 156.503C150.689 156.165 150.963 155.891 151.3 155.891C151.638 155.891 151.911 156.165 151.911 156.503Z" fill="#0D968B"/>
<path d="M137.876 156.503C137.876 156.842 137.602 157.116 137.265 157.116C136.928 157.116 136.654 156.842 136.654 156.503C136.654 156.165 136.928 155.891 137.265 155.891C137.602 155.89 137.876 156.165 137.876 156.503Z" fill="#0D968B"/>
<path d="M123.84 156.503C123.84 156.842 123.567 157.116 123.229 157.116C122.892 157.116 122.618 156.842 122.618 156.503C122.618 156.165 122.892 155.891 123.229 155.891C123.566 155.89 123.84 156.165 123.84 156.503Z" fill="#0D968B"/>
<path d="M109.805 156.503C109.805 156.842 109.531 157.116 109.194 157.116C108.856 157.116 108.583 156.842 108.583 156.503C108.583 156.165 108.856 155.891 109.194 155.891C109.531 155.891 109.805 156.165 109.805 156.503Z" fill="#0D968B"/>
<path d="M95.7693 156.503C95.7693 156.842 95.496 157.116 95.1586 157.116C94.8212 157.116 94.5479 156.842 94.5479 156.503C94.5479 156.165 94.8212 155.891 95.1586 155.891C95.496 155.891 95.7693 156.165 95.7693 156.503Z" fill="#0D968B"/>
<path d="M81.7342 156.503C81.7342 156.842 81.4608 157.116 81.1234 157.116C80.7861 157.116 80.5127 156.842 80.5127 156.503C80.5127 156.165 80.7861 155.891 81.1234 155.891C81.4602 155.89 81.7342 156.165 81.7342 156.503Z" fill="#0D968B"/>
<path d="M172.352 166.895C172.689 166.895 172.963 166.621 172.963 166.283C172.963 165.945 172.689 165.67 172.352 165.67C172.015 165.67 171.741 165.945 171.741 166.283C171.741 166.621 172.015 166.895 172.352 166.895Z" fill="#0D968B"/>
<path d="M158.317 166.895C158.654 166.895 158.928 166.621 158.928 166.283C158.928 165.945 158.654 165.67 158.317 165.67C157.979 165.67 157.706 165.945 157.706 166.283C157.706 166.621 157.979 166.895 158.317 166.895Z" fill="#0D968B"/>
<path d="M144.282 166.895C144.619 166.895 144.892 166.621 144.892 166.283C144.892 165.945 144.619 165.67 144.282 165.67C143.944 165.67 143.671 165.945 143.671 166.283C143.671 166.621 143.944 166.895 144.282 166.895Z" fill="#0D968B"/>
<path d="M130.858 166.283C130.858 166.621 130.584 166.895 130.246 166.895C129.909 166.895 129.636 166.621 129.636 166.283C129.636 165.944 129.909 165.67 130.246 165.67C130.584 165.67 130.858 165.944 130.858 166.283Z" fill="#0D968B"/>
<path d="M116.822 166.283C116.822 166.621 116.549 166.895 116.211 166.895C115.874 166.895 115.601 166.621 115.601 166.283C115.601 165.944 115.874 165.67 116.211 165.67C116.549 165.67 116.822 165.944 116.822 166.283Z" fill="#0D968B"/>
<path d="M102.176 166.895C102.513 166.895 102.787 166.621 102.787 166.283C102.787 165.945 102.513 165.67 102.176 165.67C101.839 165.67 101.565 165.945 101.565 166.283C101.565 166.621 101.839 166.895 102.176 166.895Z" fill="#0D968B"/>
<path d="M88.7524 166.283C88.7524 166.621 88.479 166.895 88.141 166.895C87.8036 166.895 87.5303 166.621 87.5303 166.283C87.5303 165.944 87.8036 165.67 88.141 165.67C88.479 165.67 88.7524 165.944 88.7524 166.283Z" fill="#0D968B"/>
<path d="M165.946 176.062C165.946 176.401 165.673 176.675 165.335 176.675C164.998 176.675 164.725 176.401 164.725 176.062C164.725 175.724 164.998 175.45 165.335 175.45C165.673 175.45 165.946 175.724 165.946 176.062Z" fill="#0D968B"/>
<path d="M151.911 176.062C151.911 176.401 151.638 176.675 151.3 176.675C150.963 176.675 150.689 176.401 150.689 176.062C150.689 175.724 150.963 175.45 151.3 175.45C151.638 175.45 151.911 175.724 151.911 176.062Z" fill="#0D968B"/>
<path d="M137.876 176.062C137.876 176.401 137.602 176.675 137.265 176.675C136.928 176.675 136.654 176.401 136.654 176.062C136.654 175.724 136.928 175.45 137.265 175.45C137.602 175.45 137.876 175.724 137.876 176.062Z" fill="#0D968B"/>
<path d="M123.84 176.062C123.84 176.401 123.567 176.675 123.229 176.675C122.892 176.675 122.618 176.401 122.618 176.062C122.618 175.724 122.892 175.45 123.229 175.45C123.566 175.45 123.84 175.724 123.84 176.062Z" fill="#0D968B"/>
<path d="M109.805 176.062C109.805 176.401 109.531 176.675 109.194 176.675C108.856 176.675 108.583 176.401 108.583 176.062C108.583 175.724 108.856 175.45 109.194 175.45C109.531 175.45 109.805 175.724 109.805 176.062Z" fill="#0D968B"/>
<path d="M95.7693 176.062C95.7693 176.401 95.496 176.675 95.1586 176.675C94.8212 176.675 94.5479 176.401 94.5479 176.062C94.5479 175.724 94.8212 175.45 95.1586 175.45C95.496 175.45 95.7693 175.724 95.7693 176.062Z" fill="#0D968B"/>
<path d="M81.7342 176.062C81.7342 176.401 81.4608 176.675 81.1234 176.675C80.7861 176.675 80.5127 176.401 80.5127 176.062C80.5127 175.724 80.7861 175.45 81.1234 175.45C81.4602 175.45 81.7342 175.724 81.7342 176.062Z" fill="#0D968B"/>
<path d="M172.352 186.454C172.689 186.454 172.963 186.18 172.963 185.842C172.963 185.504 172.689 185.229 172.352 185.229C172.015 185.229 171.741 185.504 171.741 185.842C171.741 186.18 172.015 186.454 172.352 186.454Z" fill="#0D968B"/>
<path d="M158.317 186.454C158.654 186.454 158.928 186.18 158.928 185.842C158.928 185.504 158.654 185.229 158.317 185.229C157.979 185.229 157.706 185.504 157.706 185.842C157.706 186.18 157.979 186.454 158.317 186.454Z" fill="#0D968B"/>
<path d="M144.282 186.454C144.619 186.454 144.892 186.18 144.892 185.842C144.892 185.504 144.619 185.229 144.282 185.229C143.944 185.229 143.671 185.504 143.671 185.842C143.671 186.18 143.944 186.454 144.282 186.454Z" fill="#0D968B"/>
<path d="M130.858 185.842C130.858 186.18 130.584 186.454 130.246 186.454C129.909 186.454 129.636 186.18 129.636 185.842C129.636 185.504 129.909 185.229 130.246 185.229C130.584 185.229 130.858 185.504 130.858 185.842Z" fill="#0D968B"/>
<path d="M116.822 185.842C116.822 186.18 116.549 186.454 116.211 186.454C115.874 186.454 115.601 186.18 115.601 185.842C115.601 185.504 115.874 185.229 116.211 185.229C116.549 185.229 116.822 185.504 116.822 185.842Z" fill="#0D968B"/>
<path d="M102.176 186.454C102.513 186.454 102.787 186.18 102.787 185.842C102.787 185.504 102.513 185.229 102.176 185.229C101.839 185.229 101.565 185.504 101.565 185.842C101.565 186.18 101.839 186.454 102.176 186.454Z" fill="#0D968B"/>
<path d="M88.7524 185.842C88.7524 186.18 88.479 186.454 88.141 186.454C87.8036 186.454 87.5303 186.18 87.5303 185.842C87.5303 185.504 87.8036 185.229 88.141 185.229C88.479 185.229 88.7524 185.504 88.7524 185.842Z" fill="#0D968B"/>
<path d="M165.335 196.233C165.673 196.233 165.946 195.959 165.946 195.621C165.946 195.282 165.673 195.008 165.335 195.008C164.998 195.008 164.725 195.282 164.725 195.621C164.725 195.959 164.998 196.233 165.335 196.233Z" fill="#0D968B"/>
<path d="M151.911 195.621C151.911 195.959 151.638 196.233 151.3 196.233C150.963 196.233 150.689 195.959 150.689 195.621C150.689 195.282 150.963 195.008 151.3 195.008C151.638 195.008 151.911 195.282 151.911 195.621Z" fill="#0D968B"/>
<path d="M137.876 195.621C137.876 195.959 137.602 196.233 137.265 196.233C136.928 196.233 136.654 195.959 136.654 195.621C136.654 195.282 136.928 195.008 137.265 195.008C137.602 195.008 137.876 195.282 137.876 195.621Z" fill="#0D968B"/>
<path d="M123.84 195.621C123.84 195.959 123.567 196.233 123.229 196.233C122.892 196.233 122.618 195.959 122.618 195.621C122.618 195.282 122.892 195.008 123.229 195.008C123.566 195.008 123.84 195.282 123.84 195.621Z" fill="#0D968B"/>
<path d="M109.805 195.621C109.805 195.959 109.531 196.233 109.194 196.233C108.856 196.233 108.583 195.959 108.583 195.621C108.583 195.282 108.856 195.008 109.194 195.008C109.531 195.008 109.805 195.282 109.805 195.621Z" fill="#0D968B"/>
<path d="M95.1586 196.233C95.4959 196.233 95.7693 195.959 95.7693 195.621C95.7693 195.282 95.4959 195.008 95.1586 195.008C94.8213 195.008 94.5479 195.282 94.5479 195.621C94.5479 195.959 94.8213 196.233 95.1586 196.233Z" fill="#0D968B"/>
<path d="M81.1234 196.233C81.4607 196.233 81.7342 195.959 81.7342 195.621C81.7342 195.282 81.4607 195.008 81.1234 195.008C80.7861 195.008 80.5127 195.282 80.5127 195.621C80.5127 195.959 80.7861 196.233 81.1234 196.233Z" fill="#0D968B"/>
<path d="M172.352 206.013C172.689 206.013 172.963 205.739 172.963 205.4C172.963 205.062 172.689 204.788 172.352 204.788C172.015 204.788 171.741 205.062 171.741 205.4C171.741 205.739 172.015 206.013 172.352 206.013Z" fill="#0D968B"/>
<path d="M158.317 206.013C158.654 206.013 158.928 205.739 158.928 205.4C158.928 205.062 158.654 204.788 158.317 204.788C157.979 204.788 157.706 205.062 157.706 205.4C157.706 205.739 157.979 206.013 158.317 206.013Z" fill="#0D968B"/>
<path d="M144.282 206.013C144.619 206.013 144.892 205.739 144.892 205.4C144.892 205.062 144.619 204.788 144.282 204.788C143.944 204.788 143.671 205.062 143.671 205.4C143.671 205.739 143.944 206.013 144.282 206.013Z" fill="#0D968B"/>
<path d="M130.858 205.4C130.858 205.739 130.584 206.013 130.246 206.013C129.909 206.013 129.636 205.739 129.636 205.4C129.636 205.062 129.909 204.788 130.246 204.788C130.584 204.787 130.858 205.062 130.858 205.4Z" fill="#0D968B"/>
<path d="M116.822 205.4C116.822 205.739 116.549 206.013 116.211 206.013C115.874 206.013 115.601 205.739 115.601 205.4C115.601 205.062 115.874 204.788 116.211 204.788C116.549 204.787 116.822 205.062 116.822 205.4Z" fill="#0D968B"/>
<path d="M102.176 206.013C102.513 206.013 102.787 205.739 102.787 205.4C102.787 205.062 102.513 204.788 102.176 204.788C101.839 204.788 101.565 205.062 101.565 205.4C101.565 205.739 101.839 206.013 102.176 206.013Z" fill="#0D968B"/>
<path d="M88.7524 205.4C88.7524 205.739 88.479 206.013 88.141 206.013C87.8036 206.013 87.5303 205.739 87.5303 205.4C87.5303 205.062 87.8036 204.788 88.141 204.788C88.479 204.787 88.7524 205.062 88.7524 205.4Z" fill="#0D968B"/>
</g>
<path d="M117.842 153.615C117.842 153.615 114.044 172.842 112.146 180.457C112.146 180.457 129.806 187.501 137.591 190.166C137.591 190.166 138.731 200.887 137.591 206.663" stroke="black" stroke-width="0.804298" stroke-miterlimit="10" stroke-linecap="round" stroke-linejoin="round"/>
<path d="M113.831 173.075L119.197 183.238L112.146 180.456L113.831 173.075Z" fill="black"/>
<path d="M112.778 116.986C113.231 123.458 118.525 128.715 126.749 126.559L127.553 126.336L125.718 132.514C125.718 132.514 127.294 138.782 134.183 138.319C143.896 137.667 145.929 133.586 145.929 133.586L146.251 116.096C146.251 116.096 150.585 117.628 150.709 111.191C150.839 104.357 146.075 105.631 146.075 105.631L146.046 105.203C146.179 96.0719 140.184 90.8953 132.672 90.0108L130.939 89.788C130.939 89.788 110.571 85.4983 112.778 116.986Z" fill="#FFCFA4"/>
<path d="M125.467 83.9306C125.467 83.9306 126.01 82.3005 128.071 80.8556C130.132 79.4101 132.165 80.8556 132.165 80.8556C132.165 80.8556 142.407 77.551 149.585 83.9306C156.763 90.3101 152.558 96.1287 152.558 96.1287C152.558 96.1287 156.704 97.7883 152.012 105.631C152.012 105.631 134.424 87.7351 125.467 83.9306Z" fill="#E9590C"/>
<path d="M146.074 122.563C146.074 122.563 152.53 120.759 150.71 116.461C150.71 116.461 158.962 106.856 151.034 103.886C151.034 103.886 152.772 95.9515 135.289 89.5911C135.289 89.5911 124.522 78.8923 118.584 83.2307C118.584 83.2307 117.241 85.1786 116.698 86.8476C116.698 86.8476 110.319 84.8083 109.852 92.1828C109.852 92.1828 110.053 94.0838 111.54 95.0368C111.54 95.0368 112.653 94.0184 115.712 93.0185C115.712 93.0185 115.501 94.8504 115.872 96.9675C115.872 96.9675 117.108 95.0757 118.584 93.4456C118.584 93.4456 134.762 91.8872 138.713 98.9166C142.664 105.946 142.664 109.172 142.664 110.465C142.664 111.757 145.402 108.143 146.072 105.63C146.072 105.63 150.366 104.893 150.709 110.465C150.709 110.465 151.147 117.129 146.249 116.096L146.074 122.563Z" fill="#262626"/>
<path d="M152.557 96.1285C152.557 96.1285 145.509 86.8727 132.164 80.8555" stroke="black" stroke-width="0.804298" stroke-miterlimit="10" stroke-linecap="round" stroke-linejoin="round"/>
<path d="M146.001 109.462C146.001 109.462 145.148 110.272 145.972 110.697C147.728 111.605 145.34 112.062 145.893 112.744" stroke="black" stroke-width="0.804298" stroke-miterlimit="10" stroke-linecap="round" stroke-linejoin="round"/>
<path d="M145.797 107.476C145.797 107.476 148.928 105.907 148.401 110.465" stroke="black" stroke-width="0.804298" stroke-miterlimit="10" stroke-linecap="round" stroke-linejoin="round"/>
<path d="M126.504 101.509C126.924 101.514 127.523 101.516 128.045 101.558C128.586 101.593 129.133 101.647 129.681 101.736C130.229 101.825 130.778 101.94 131.343 102.059C131.915 102.166 132.482 102.311 133.129 102.39L133.144 102.392C133.301 102.411 133.444 102.299 133.463 102.141C133.472 102.066 133.45 101.993 133.408 101.935C133.011 101.399 132.516 100.956 131.968 100.597C131.427 100.219 130.817 99.9658 130.197 99.7355C129.574 99.5121 128.922 99.3658 128.258 99.2806C127.576 99.2103 126.956 99.1819 126.171 99.3294C125.576 99.4411 125.185 100.015 125.296 100.611C125.394 101.135 125.847 101.501 126.359 101.508L126.504 101.509Z" fill="black"/>
<mask id="mask1_13056_5118" style="mask-type:luminance" maskUnits="userSpaceOnUse" x="113" y="98" width="7" height="6">
<path d="M115.217 98.2266C115.217 98.2266 114.152 100.212 113.407 103.789C113.407 103.789 119.139 104.459 119.956 102.297C119.957 102.297 120.694 99.0709 115.217 98.2266Z" fill="white"/>
</mask>
<g mask="url(#mask1_13056_5118)">
<path d="M117.955 100.376C117.417 100.128 116.986 100.046 116.487 99.9857C116.002 99.9388 115.511 99.956 115.03 100.038C114.55 100.119 114.073 100.247 113.644 100.489C113.213 100.715 112.828 101.041 112.549 101.46C112.455 101.6 112.493 101.79 112.632 101.884C112.672 101.911 112.715 101.927 112.76 101.933L112.789 101.937C113.268 102.001 113.657 101.995 114.043 102.029C114.423 102.053 114.78 102.058 115.136 102.1C115.491 102.137 115.841 102.185 116.186 102.252C116.517 102.303 116.909 102.4 117.161 102.431L117.371 102.456C117.969 102.529 118.513 102.101 118.585 101.502C118.643 101.018 118.375 100.569 117.955 100.376Z" fill="black"/>
</g>
<mask id="mask2_13056_5118" style="mask-type:luminance" maskUnits="userSpaceOnUse" x="112" y="102" width="9" height="11">
<path d="M113.63 102.799C113.63 102.799 112.696 106.115 112.637 111.384C112.637 111.384 115.508 112.837 117.728 111.311C118.753 110.605 119.359 109.049 120.132 106.585C120.131 106.585 117.544 103.494 113.63 102.799Z" fill="white"/>
</mask>
<g mask="url(#mask2_13056_5118)">
<path d="M108.897 108.451C109.495 107.409 110.349 106.58 111.4 105.948C112.441 105.318 113.755 104.985 115.043 105.149C116.325 105.326 117.497 105.919 118.386 106.727C118.841 107.118 119.195 107.596 119.576 108.035C119.881 108.531 120.183 109.021 120.434 109.533C120.51 109.689 120.446 109.878 120.289 109.955C120.18 110.008 120.055 109.993 119.963 109.924L119.933 109.902C119.485 109.566 119.09 109.209 118.697 108.859L118.066 108.402C117.852 108.262 117.677 108.063 117.447 107.963C117.226 107.846 117.015 107.723 116.808 107.594C116.607 107.446 116.368 107.409 116.154 107.31L115.831 107.17C115.724 107.125 115.608 107.117 115.498 107.088C115.274 107.053 115.058 106.954 114.831 106.961C113.04 106.704 111.157 107.674 109.471 108.914L109.439 108.938C109.273 109.059 109.04 109.023 108.919 108.857C108.83 108.734 108.826 108.575 108.897 108.451Z" fill="black"/>
</g>
<path d="M123.161 109.81C123.772 108.783 124.628 107.963 125.668 107.325C126.699 106.692 127.996 106.329 129.294 106.464C130.587 106.591 131.796 107.188 132.686 108.009C133.153 108.4 133.496 108.893 133.875 109.34C134.175 109.844 134.467 110.346 134.704 110.868C134.784 111.042 134.707 111.249 134.532 111.329C134.412 111.384 134.276 111.365 134.178 111.289L134.143 111.262C133.698 110.921 133.311 110.557 132.925 110.201L132.302 109.739C132.1 109.586 131.919 109.401 131.694 109.298C131.476 109.181 131.274 109.046 131.068 108.919C130.864 108.787 130.63 108.743 130.422 108.638L130.103 108.5L129.771 108.424C129.55 108.379 129.336 108.291 129.109 108.294C128.217 108.18 127.289 108.359 126.369 108.722C125.457 109.092 124.541 109.638 123.687 110.251L123.66 110.27C123.504 110.381 123.288 110.346 123.176 110.189C123.094 110.075 123.093 109.925 123.161 109.81Z" fill="black"/>
<path d="M127.552 126.336L132.185 125.4L126.24 130.751L127.552 126.336Z" fill="black"/>
<path d="M117.155 116C117.155 116 120.452 116.612 125.466 116.459C125.466 116.459 125.447 121.683 120.85 121.479C117.399 121.325 117.155 116 117.155 116Z" fill="black"/>
<path d="M124.942 118.901C124.942 118.901 122.246 118.576 120.1 120.021C119.471 120.444 119.689 121.349 120.451 121.479C120.994 121.572 121.728 121.557 122.69 121.285C122.69 121.285 124.335 120.688 124.942 118.901Z" fill="#E9590C"/>
<path d="M117.155 116C117.155 116 120.179 119.201 125.466 116.459L117.155 116Z" fill="white"/>
<path d="M146.251 116.097L144.353 115.398" stroke="black" stroke-width="0.804298" stroke-miterlimit="10" stroke-linecap="round" stroke-linejoin="round"/>
<path d="M120.11 106.486C119.221 109.877 117.715 110.806 117.715 110.806C117.715 110.806 116.846 111.404 117.111 112.264C117.377 113.123 117.923 112.76 118.584 113.32" stroke="black" stroke-width="0.804298" stroke-miterlimit="10" stroke-linecap="round" stroke-linejoin="round"/>
<path d="M120.442 112.939C120.442 112.939 120.572 112.902 120.791 112.959C121.011 113.014 121.15 113.251 121.15 113.251" stroke="black" stroke-width="0.804298" stroke-miterlimit="10" stroke-linecap="round" stroke-linejoin="round"/>
<path d="M122.18 111.367C122.18 111.367 123.284 112.227 122.212 113.53" stroke="black" stroke-width="0.804298" stroke-miterlimit="10" stroke-linecap="round" stroke-linejoin="round"/>
<path d="M146.074 105.63L135.29 108.305" stroke="black" stroke-width="0.804298" stroke-miterlimit="10" stroke-linecap="round" stroke-linejoin="round"/>
<path d="M122.072 108.882C121.777 112.561 124.512 115.782 128.182 116.078C131.851 116.374 135.065 113.631 135.36 109.953C135.655 106.274 132.919 103.052 129.25 102.757C125.58 102.461 122.366 105.203 122.072 108.882Z" stroke="black" stroke-width="0.804298" stroke-miterlimit="10" stroke-linecap="round" stroke-linejoin="round"/>
<path d="M119.808 107.481C119.779 104.094 117.472 101.265 114.411 101.018C111.148 100.755 108.264 103.524 107.969 107.203C107.674 110.881 110.079 114.077 113.342 114.34C114.766 114.454 116.118 113.992 117.214 113.128" stroke="black" stroke-width="0.804298" stroke-miterlimit="10" stroke-linecap="round" stroke-linejoin="round"/>
<path d="M122.244 107.82C122.244 107.82 121.15 106.673 119.849 107.36" stroke="black" stroke-width="0.804298" stroke-miterlimit="10" stroke-linecap="round" stroke-linejoin="round"/>
<path d="M145.598 134.068C145.598 134.068 142.394 138.579 132.931 138.343C132.931 138.343 128.171 138.146 126.227 133.817" stroke="black" stroke-width="0.804298" stroke-miterlimit="10" stroke-linecap="round" stroke-linejoin="round"/>
<path d="M150.605 131.612L135.424 126.382C134.393 125.942 133.914 124.747 134.354 123.714L145.52 97.4756C145.959 96.4424 147.151 95.9622 148.182 96.4029L163.363 101.633C164.394 102.073 164.873 103.268 164.433 104.301L153.267 130.539C152.827 131.573 151.636 132.053 150.605 131.612Z" fill="#164F64"/>
<path d="M153.824 150.275C153.824 150.275 155.778 142.53 156.705 136.554C156.705 136.554 165.712 134.032 168.493 133.368C168.493 133.368 169.935 144.088 170.252 149.41C170.252 149.41 162.466 150.718 153.824 150.275Z" fill="#FFCFA4"/>
<path d="M159.934 115.028C161.779 117.019 167.581 123.956 168.491 133.368C168.491 133.368 160.564 137.648 156.704 136.555C156.704 136.555 150.269 132.052 149.349 127.811C148.43 123.571 145.764 121.083 143.649 122.65C143.649 122.65 141.908 123.459 141.416 122.261C140.924 121.065 142.4 119.304 143.453 118.53C143.453 118.53 140.784 118.389 140.574 116.981C140.363 115.572 141.416 114.164 143.102 113.953C143.102 113.953 142.119 112.967 143.172 111.348C144.226 109.728 146.965 109.517 148.51 109.588C150.056 109.658 154.137 113.46 154.519 114.164C154.902 114.868 154.839 110.784 154.519 109.939C154.199 109.094 150.196 104.236 152.654 102.828C155.113 101.419 157.571 106.067 158.905 108.813C159.826 110.708 159.698 112.669 159.53 113.704C159.452 114.186 159.603 114.671 159.934 115.028Z" fill="#FFCFA4"/>
<path d="M152.482 116.575C152.482 116.575 150.898 114.406 148.928 113.36C148.32 113.038 143.103 113.953 143.103 113.953" stroke="black" stroke-width="0.804298" stroke-miterlimit="10" stroke-linecap="round" stroke-linejoin="round"/>
<path d="M143.103 118.495C143.103 118.495 145.421 117.776 147.792 117.388C150.164 117.001 151.864 121.183 151.864 121.183" stroke="black" stroke-width="0.804298" stroke-miterlimit="10" stroke-linecap="round" stroke-linejoin="round"/>
<path d="M156.296 204.66C143.53 180.664 153.823 150.275 153.823 150.275C153.823 150.275 160.148 151.078 170.251 149.41C170.251 149.41 171.315 165.37 171.315 177.036" stroke="black" stroke-width="0.804298" stroke-miterlimit="10" stroke-linecap="round" stroke-linejoin="round"/>
<path d="M137.649 193.372L137.56 206.482C137.56 206.482 148.475 208.162 152.249 201.283C152.249 201.283 158.343 205.663 160.911 203.457C160.911 203.457 163.774 204.928 166.305 203.383C166.305 203.383 168.689 205.001 171.184 203.089C171.184 203.089 175.22 204.707 176.1 201.617C176.981 198.527 164.726 193.599 160.177 191.171C155.627 188.744 150.858 190.804 148.363 191.834C145.869 192.863 141.732 193.439 137.649 193.372Z" fill="#FFCFA4"/>
<path d="M143.015 202.833C143.015 202.833 146.446 204.351 151.088 200.557C151.088 200.557 154.895 203.477 157.811 203.939" stroke="black" stroke-width="0.804298" stroke-miterlimit="10" stroke-linecap="round" stroke-linejoin="round"/>
<path d="M160.911 203.456C160.911 203.456 163.349 201.619 151.895 196.358" stroke="black" stroke-width="0.804298" stroke-miterlimit="10" stroke-linecap="round" stroke-linejoin="round"/>
<path d="M166.305 203.383C166.305 203.383 169.555 200.557 155.932 194.639" stroke="black" stroke-width="0.804298" stroke-miterlimit="10" stroke-linecap="round" stroke-linejoin="round"/>
<path d="M171.184 203.088C171.184 203.088 174.247 199.444 159.262 193.475" stroke="black" stroke-width="0.804298" stroke-miterlimit="10" stroke-linecap="round" stroke-linejoin="round"/>
<path d="M137.838 193.375L137.648 205.056" stroke="black" stroke-width="0.804298" stroke-miterlimit="10" stroke-linecap="round" stroke-linejoin="round"/>
<path d="M140.735 193.302C140.735 193.302 146.751 192.639 150.413 191.028C154.075 189.417 158.29 190.22 160.178 191.171" stroke="black" stroke-width="0.804298" stroke-miterlimit="10" stroke-linecap="round" stroke-linejoin="round"/>
<path d="M187.091 202.248H153.649V206.481H187.091V202.248Z" fill="#262626"/>
<path d="M239.679 164.464H184.708C183.735 164.464 182.869 165.08 182.546 166L169.442 203.424C168.92 204.918 170.025 206.482 171.603 206.482H226.575C227.547 206.482 228.414 205.866 228.736 204.946L241.841 167.521C242.364 166.028 241.258 164.464 239.679 164.464Z" fill="#262626"/>
<path d="M179.775 173.916L174.633 188.6" stroke="black" stroke-width="0.804298" stroke-miterlimit="10" stroke-linecap="round" stroke-linejoin="round"/>
<path d="M209.955 186.547C209.327 189.081 207.19 190.729 205.18 190.228C203.171 189.728 202.051 187.269 202.678 184.735C203.306 182.202 205.444 180.553 207.453 181.054C209.464 181.554 210.583 184.014 209.955 186.547Z" fill="#FAFAFA"/>
<path d="M255.198 206.481H19.3369V212.642H255.198V206.481Z" fill="#94332A"/>
<path d="M28.4119 212.642L11 316.999" stroke="white" stroke-width="0.804298" stroke-miterlimit="10" stroke-linecap="round" stroke-linejoin="round"/>
<path d="M73 212.642L90.4113 316.999" stroke="white" stroke-width="0.804298" stroke-miterlimit="10" stroke-linecap="round" stroke-linejoin="round"/>
<path d="M241.234 212.642L258.646 316.999" stroke="black" stroke-width="0.804298" stroke-miterlimit="10" stroke-linecap="round" stroke-linejoin="round"/>
</g>
<defs>
<clipPath id="clip0_13056_5118">
<rect width="270" height="300" fill="white"/>
</clipPath>
</defs>
</svg>
